<?xml version="1.0" ?><!DOCTYPE svg  PUBLIC '-//W3C//DTD SVG 1.1//EN'  'http://www.w3.org/Graphics/SVG/1.1/DTD/svg11.dtd'><svg id="Capa_1" style="enable-background:new 0 0 512 512;" version="1.1" viewBox="0 0 512 512" xml:space="preserve" xmlns="http://www.w3.org/2000/svg" xmlns:xlink="http://www.w3.org/1999/xlink"><style type="text/css">
	.st0{fill:#FFDE00;}
	.st1{fill:#432918;}
	.st2{fill:#BE1622;}
	.st3{fill:#FFFFFF;}
</style><g><circle class="st0" cx="256" cy="253" id="cabeza" r="245.7"/><g id="barba"><path class="st1" d="M395.2,339.6c-26.5,18-8.8,54.1-40,84.2c-12.2,11.8-24.3,19.6-35.8,24.7     C300.6,459,278.2,465,254.1,465c-25.7,0-49.5-6.9-69.1-18.6c-9.7-4.8-19.4-11.4-29.8-20.8c-31.9-28.7-15.3-66.3-35.2-82.4     c-31.1-25.2-97.8-13.3-96.9-10.9C57,426.3,134.3,506.3,256.4,506.3s211.5-100,232.4-173.8C489.1,331.3,433.1,313.8,395.2,339.6z" id="XMLID_3_"/><path class="st1" d="M388.4,325.5c0,12.7-70.1,0-134.9,0s-128.8,16.2-128.8,3.5s61.3-39.3,126.1-39.3     S388.4,312.7,388.4,325.5z" id="XMLID_14_"/></g><g id="Capa_2"/><g id="boca_1_"><path d="M256,373.5c-53.2,0-98.2-13.3-112.5-31.4c-3.1,3.6-4.8,9.1-4.8,17.1c0,20.4,11.4,38.7,28.2,53.3     c21.6-18.7,54-24.4,89.6-24.4c35,0,66,5.4,87.5,23.6c17.4-15.2,29.2-34.3,29.2-55.1c0-7-1.4-12.1-4-15.5     C355.9,359.7,310.3,373.5,256,373.5z" id="boca"/><path class="st2" d="M344,411.6c-21.5-18.2-53-29.6-88-29.6c-35.6,0-67.5,11.8-89,30.5c24.2,20.9,59.6,34,88.9,34     C284.8,446.4,319.8,432.8,344,411.6z" id="XMLID_25_"/><path class="st3" d="M256,373.5c54.3,0,99.9-13.8,113.3-32.5c-15.5-21-71.2,9-113.8,9c-41.6,0-96.2-26.5-112-8     C157.8,360.2,202.8,373.5,256,373.5z" id="dientes"/></g><g id="ojos"><g id="ojo_izquierdo"><circle class="st3" cx="165" cy="185" id="XMLID_1_" r="48.5"/><circle cx="165" cy="185" id="XMLID_5_" r="30.3"/></g><g id="ojo_derecho"><circle class="st3" cx="352" cy="185" id="XMLID_2_" r="48.5"/><circle cx="352" cy="185" id="XMLID_4_" r="30.3"/></g></g><path class="st1" d="M184.8,97.3c-4.4,21.3-22.4,1.8-47.6,11s-26.3,37.5-44.8,27.3c-23.5-12.9,10.9-42.2,36-51.4    S190.2,71.1,184.8,97.3z" id="XMLID_6_"/><path class="st1" d="M419.6,130.4c-17,13.5-18.3-13-43.5-22.2c-25.1-9.2-44.2,11.8-51.9-7.8    c-9.7-24.9,35.5-25.4,60.6-16.2S440.6,113.8,419.6,130.4z" id="XMLID_7_"/></g></svg>